# Blender 4.3.2
# www.blender.org
mtllib guizmo.mtl
o z.002_XAxis_0
v 0.511854 0.048422 -0.008840
v 0.018271 0.029218 -0.026838
v 0.010809 0.016707 -0.028019
v 1.017702 0.045005 -0.001762
v 1.038078 0.072874 -0.007694
v -0.009294 0.021249 -0.056344
v 0.018271 0.047494 0.001274
v 0.010941 0.043129 0.013090
v -0.009426 0.070888 0.019550
v 0.450143 -0.018737 -0.007515
v 0.018272 -0.016479 -0.014323
v 0.011086 -0.016441 -0.000544
v 1.017845 -0.021363 0.010343
v 1.037935 -0.049773 0.014386
v -0.009571 -0.043959 -0.007109
v 0.018272 0.004198 -0.030450
v 0.449057 -0.024873 0.018987
v 0.018271 -0.011198 0.035650
v 0.010895 0.001118 0.038406
v -0.009380 -0.007045 0.065780
v 0.018271 -0.022621 0.012198
v 0.512309 0.024980 0.042273
v 0.018271 0.041370 0.025883
v 0.010941 0.043129 0.013090
v 1.017670 0.019973 0.036483
v 1.038110 0.025893 0.064307
v -0.009426 0.070888 0.019550
v 0.018271 0.012524 0.043089
v 1.000759 0.108202 0.020820
v 1.147565 0.031153 -0.002553
v 1.180766 0.012519 0.006068
v 0.991489 0.109309 0.035869
v 0.977589 0.140347 0.044262
v 1.215795 0.012780 0.006005
v 1.000625 0.061365 -0.075490
v 0.991436 0.049820 -0.085665
v 0.977254 0.063452 -0.114648
v 1.000366 0.035583 -0.088187
v 1.136476 0.007598 -0.020625
v 1.000306 -0.042361 -0.070584
v 0.991645 -0.054657 -0.061255
v 0.976854 -0.077094 -0.083723
v 1.000303 -0.063972 -0.048975
v 1.136476 -0.014012 0.000985
v 1.000355 -0.081580 0.028973
v 0.991521 -0.078798 0.043909
v 0.977140 -0.108303 0.056143
v 1.000350 -0.070201 0.056449
v 1.136476 -0.002631 0.028461
v 1.000285 -0.002631 0.099124
v 0.991585 0.012380 0.101208
v 0.976869 0.012919 0.132991
v 1.000382 0.027614 0.098463
v 1.140904 0.027614 0.025552
v 1.000586 0.101257 0.047892
v 1.027890 -0.009438 0.008461
v 1.027890 0.010393 -0.015192
v 1.017645 0.009096 -0.024250
v 1.017845 -0.021363 0.010343
v 1.037935 -0.049773 0.014386
v 1.038135 0.004702 -0.052321
v 1.027890 0.034641 0.000444
v 1.017702 0.045005 -0.001762
v 1.038078 0.072874 -0.007694
v 1.027890 0.017827 0.026185
v 1.017670 0.019973 0.036483
v 1.038110 0.025893 0.064307
v 1.010376 0.043518 -0.014871
v 1.010376 0.021825 -0.028860
v 1.017645 0.009096 -0.024250
v 1.038135 0.004702 -0.052321
v 0.582227 0.026860 -0.030484
v 1.010375 -0.004149 -0.024930
v 1.010375 -0.023353 -0.002025
v 0.545887 0.001313 -0.026691
v 1.010377 -0.020311 0.022599
v 1.010377 0.007804 0.040876
v 0.516760 -0.004642 0.041692
v 1.010376 0.033103 0.035135
v 1.010376 0.049327 0.010297
v 1.017702 0.045005 -0.001762
v 1.038078 0.072874 -0.007694
v 0.547568 0.048457 0.019781
v 0.000758 -0.008241 0.001260
v 0.000758 0.004435 0.027285
v 0.010895 0.001118 0.038406
v 0.011086 -0.016441 -0.000544
v -0.009571 -0.043959 -0.007109
v -0.009380 -0.007045 0.065780
v 0.000758 0.032402 0.010603
v 0.010941 0.043129 0.013090
v -0.009426 0.070888 0.019550
v 0.000758 0.014697 -0.016631
v 0.010809 0.016707 -0.028019
v -0.009294 0.021249 -0.056344
v 0.984303 -0.073741 0.041821
v 0.984286 0.012247 0.096129
v 0.991585 0.012380 0.101208
v 0.991521 -0.078798 0.043909
v 0.977140 -0.108303 0.056143
v 0.976869 0.012919 0.132991
v 0.984476 0.102482 0.034163
v 0.991489 0.109309 0.035869
v 0.977589 0.140347 0.044262
v 0.984354 0.046955 -0.080014
v 0.991436 0.049820 -0.085665
v 0.977254 0.063452 -0.114648
v 0.984277 -0.051228 -0.057841
v 0.991645 -0.054657 -0.061255
v 0.976854 -0.077094 -0.083723
vn -0.1863 0.7241 -0.6640
vn 0.6375 0.6929 0.3370
vn 0.5735 -0.0951 0.8137
vn -0.5661 -0.7981 0.2062
vn 0.6211 0.7656 -0.1674
vn -0.6235 0.1325 -0.7706
vn 0.6115 0.0185 -0.7910
vn 0.5732 -0.7900 -0.2174
vn -0.6247 0.7591 0.1830
vn -0.0911 -0.1843 -0.9786
vn 0.6474 0.1972 -0.7362
vn 0.5424 0.8204 0.1807
vn -0.5816 0.8100 -0.0754
vn 0.6242 -0.7724 0.1168
vn -0.5972 -0.7838 -0.1704
vn 0.7174 -0.6938 0.0629
vn -0.1711 -0.7846 0.5959
vn 0.6477 -0.6513 -0.3954
vn 0.5804 0.2626 -0.7708
vn -0.6196 -0.2263 0.7516
vn 0.6247 -0.1002 0.7744
vn -0.1900 0.6006 0.7766
vn 0.6367 -0.3663 0.6785
vn -0.5654 -0.2009 -0.8000
vn 0.6275 0.1657 0.7608
vn -0.6247 0.7591 0.1831
vn 0.6123 0.7889 0.0511
vn 0.7760 -0.1054 -0.6218
vn -0.6880 0.6591 -0.3037
vn -1.0000 0.0078 -0.0005
vn 0.2715 -0.9300 -0.2478
vn -0.3933 0.8874 0.2405
vn 0.9999 0.0167 -0.0028
vn 0.7774 0.4192 0.4691
vn 0.2627 -0.4150 0.8711
vn -0.4040 0.3887 -0.8281
vn 0.8033 -0.5948 -0.0303
vn -0.6402 -0.1340 -0.7565
vn 0.8041 0.5303 -0.2686
vn 0.2312 0.6893 0.6867
vn -0.4254 -0.6390 -0.6409
vn 0.8102 -0.2713 0.5197
vn -0.6497 -0.7465 -0.1434
vn 0.8072 -0.0306 -0.5895
vn 0.2322 0.8989 -0.3715
vn -0.4107 -0.8422 0.3493
vn 0.8054 0.3985 0.4388
vn -0.6463 -0.4245 0.6341
vn 0.8093 -0.5605 -0.1757
vn 0.2413 -0.0165 -0.9703
vn -0.4231 0.0160 0.9059
vn 0.7959 0.5682 -0.2092
vn -0.6560 0.4647 0.5948
vn 0.7926 -0.3881 0.4702
vn 0.4823 0.8675 -0.1216
vn 0.4591 0.1290 0.8790
vn -0.5568 0.1158 0.8226
vn -0.5817 0.8099 -0.0754
vn 0.6243 -0.7724 0.1169
vn 0.5893 -0.1118 -0.8001
vn 0.4753 -0.8596 0.1876
vn 0.6212 0.7656 -0.1673
vn 0.4611 -0.1901 -0.8668
vn 0.6275 0.1656 0.7608
vn -0.6513 -0.3255 -0.6854
vn -0.6251 0.7801 -0.0248
vn -0.5567 0.1158 0.8226
vn 0.1639 0.6799 -0.7148
vn -0.6379 -0.7512 0.1696
vn -0.7140 0.0944 -0.6938
vn 0.1009 -0.9713 -0.2155
vn -0.6334 0.3310 0.6995
vn -0.6111 -0.7915 0.0085
vn 0.1921 -0.6559 0.7300
vn -0.6436 0.6897 -0.3317
vn -0.6195 0.0211 0.7847
vn -0.5661 -0.7981 0.2061
vn 0.1785 0.7451 0.6426
vn -0.4539 0.8679 0.2018
vn -0.4811 0.2618 -0.8367
vn 0.5425 0.8204 0.1807
vn -0.4603 -0.8643 -0.2028
vn -0.4834 -0.1302 0.8656
vn 0.5735 -0.0952 0.8136
vn -0.6235 0.1325 -0.7705
vn -0.5405 0.7777 -0.3209
vn -0.5230 -0.0072 -0.8523
vn 0.2323 0.8989 -0.3715
vn -0.4107 -0.8422 0.3492
vn -0.4232 0.0160 0.9059
vn -0.5265 -0.8182 -0.2310
vn 0.2716 -0.9300 -0.2478
vn -0.5259 -0.3493 0.7756
vn -0.5274 0.6032 0.5983
vn 0.2312 0.6893 0.6866
vn -0.4255 -0.6389 -0.6409
vt 0.943060 0.000000
vt 0.768362 0.500000
vt 0.979190 0.500000
vt 0.481638 0.000000
vt 0.535738 0.500000
vt 0.304787 0.500000
vt 0.214167 0.000000
vt 0.052552 0.500000
vt 0.187175 0.542896
vt 0.250000 0.750000
vt 0.454728 0.664375
vt 0.412870 0.913598
vt 0.164249 0.954728
vt 0.019118 0.749657
vt 0.226638 0.952332
vt 0.474686 0.779857
vt 0.296876 0.544742
vt 0.033622 0.700410
vt 0.729094 0.000000
vt 0.036551 0.000000
vt 0.801504 0.975127
vt 0.558651 0.818992
vt 0.700432 0.533429
vt 0.952332 0.726638
vt 0.664249 0.954728
vt 0.519118 0.749657
vt 0.687175 0.542896
vt 0.954728 0.664375
vt 0.912870 0.913598
s 1
usemtl XAxis
f 1/1/1 2/2/2 3/2/3
f 1/1/1 3/2/3 4/1/4
f 2/2/2 1/1/1 5/1/5
f 2/2/2 5/1/5 6/2/6
f 2/2/2 7/3/7 8/3/8
f 2/2/2 8/3/8 3/2/3
f 7/3/7 2/2/2 6/2/6
f 7/3/7 6/2/6 9/3/9
f 7/3/7 1/1/1 4/1/4
f 7/3/7 4/1/4 8/3/8
f 1/1/1 7/3/7 9/3/9
f 1/1/1 9/3/9 5/1/5
f 10/4/10 11/5/11 12/5/12
f 10/4/10 12/5/12 13/4/13
f 11/5/11 10/4/10 14/4/14
f 11/5/11 14/4/14 15/5/15
f 11/5/11 16/2/16 3/2/3
f 11/5/11 3/2/3 12/5/12
f 16/2/16 11/5/11 15/5/15
f 16/2/16 15/5/15 6/2/6
f 16/2/16 10/4/10 13/4/13
f 16/2/16 13/4/13 3/2/3
f 10/4/10 16/2/16 6/2/6
f 10/4/10 6/2/6 14/4/14
f 17/4/17 18/6/18 19/6/19
f 17/4/17 19/6/19 13/4/13
f 18/6/18 17/4/17 14/4/14
f 18/6/18 14/4/14 20/6/20
f 18/6/18 21/5/21 12/5/12
f 18/6/18 12/5/12 19/6/19
f 21/5/21 18/6/18 20/6/20
f 21/5/21 20/6/20 15/5/15
f 21/5/21 17/4/17 13/4/13
f 21/5/21 13/4/13 12/5/12
f 17/4/17 21/5/21 15/5/15
f 17/4/17 15/5/15 14/4/14
f 22/7/22 23/8/23 24/8/8
f 22/7/22 24/8/8 25/7/24
f 23/8/23 22/7/22 26/7/25
f 23/8/23 26/7/25 27/8/26
f 23/8/23 28/6/27 19/6/19
f 23/8/23 19/6/19 24/8/8
f 28/6/27 23/8/23 27/8/26
f 28/6/27 27/8/26 20/6/20
f 28/6/27 22/7/22 25/7/24
f 28/6/27 25/7/24 19/6/19
f 22/7/22 28/6/27 20/6/20
f 22/7/22 20/6/20 26/7/25
f 29/9/28 30/10/29 31/10/30
f 29/9/28 31/10/30 32/9/31
f 30/10/29 29/9/28 33/9/32
f 30/10/29 33/9/32 34/10/33
f 30/10/29 35/11/34 36/11/35
f 30/10/29 36/11/35 31/10/30
f 35/11/34 30/10/29 34/10/33
f 35/11/34 34/10/33 37/11/36
f 35/11/34 29/9/28 32/9/31
f 35/11/34 32/9/31 36/11/35
f 29/9/28 35/11/34 37/11/36
f 29/9/28 37/11/36 33/9/32
f 38/11/37 39/10/38 31/10/30
f 38/11/37 31/10/30 36/11/35
f 39/10/38 38/11/37 37/11/36
f 39/10/38 37/11/36 34/10/33
f 39/10/38 40/12/39 41/12/40
f 39/10/38 41/12/40 31/10/30
f 40/12/39 39/10/38 34/10/33
f 40/12/39 34/10/33 42/12/41
f 40/12/39 38/11/37 36/11/35
f 40/12/39 36/11/35 41/12/40
f 38/11/37 40/12/39 42/12/41
f 38/11/37 42/12/41 37/11/36
f 43/12/42 44/10/43 31/10/30
f 43/12/42 31/10/30 41/12/40
f 44/10/43 43/12/42 42/12/41
f 44/10/43 42/12/41 34/10/33
f 44/10/43 45/13/44 46/13/45
f 44/10/43 46/13/45 31/10/30
f 45/13/44 44/10/43 34/10/33
f 45/13/44 34/10/33 47/13/46
f 45/13/44 43/12/42 41/12/40
f 45/13/44 41/12/40 46/13/45
f 43/12/42 45/13/44 47/13/46
f 43/12/42 47/13/46 42/12/41
f 48/13/47 49/10/48 31/10/30
f 48/13/47 31/10/30 46/13/45
f 49/10/48 48/13/47 47/13/46
f 49/10/48 47/13/46 34/10/33
f 49/10/48 50/14/49 51/14/50
f 49/10/48 51/14/50 31/10/30
f 50/14/49 49/10/48 34/10/33
f 50/14/49 34/10/33 52/14/51
f 50/14/49 48/13/47 46/13/45
f 50/14/49 46/13/45 51/14/50
f 48/13/47 50/14/49 52/14/51
f 48/13/47 52/14/51 47/13/46
f 53/14/52 54/10/53 31/10/30
f 53/14/52 31/10/30 51/14/50
f 54/10/53 53/14/52 52/14/51
f 54/10/53 52/14/51 34/10/33
f 54/10/53 55/9/54 32/9/31
f 54/10/53 32/9/31 31/10/30
f 55/9/54 54/10/53 34/10/33
f 55/9/54 34/10/33 33/9/32
f 55/9/54 53/14/52 51/14/50
f 55/9/54 51/14/50 32/9/31
f 53/14/52 55/9/54 33/9/32
f 53/14/52 33/9/32 52/14/51
f 56/15/55 57/16/56 58/16/57
f 56/15/55 58/16/57 59/15/58
f 57/16/56 56/15/55 60/15/59
f 57/16/56 60/15/59 61/16/60
f 57/16/56 62/17/61 63/17/4
f 57/16/56 63/17/4 58/16/57
f 62/17/61 57/16/56 61/16/60
f 62/17/61 61/16/60 64/17/62
f 62/17/61 65/18/63 66/18/24
f 62/17/61 66/18/24 63/17/4
f 65/18/63 62/17/61 64/17/62
f 65/18/63 64/17/62 67/18/64
f 65/18/63 56/15/55 59/15/58
f 65/18/63 59/15/58 66/18/24
f 56/15/55 65/18/63 67/18/64
f 56/15/55 67/18/64 60/15/59
f 68/1/65 69/19/66 70/19/67
f 68/1/65 70/19/67 4/1/4
f 69/19/66 68/1/65 5/1/5
f 69/19/66 5/1/5 71/19/60
f 69/19/66 72/2/68 3/2/3
f 69/19/66 3/2/3 70/19/67
f 72/2/68 69/19/66 71/19/60
f 72/2/68 71/19/60 6/2/6
f 72/2/68 68/1/65 4/1/4
f 72/2/68 4/1/4 3/2/3
f 68/1/65 72/2/68 6/2/6
f 68/1/65 6/2/6 5/1/5
f 73/19/69 74/4/70 13/4/13
f 73/19/69 13/4/13 70/19/67
f 74/4/70 73/19/69 71/19/60
f 74/4/70 71/19/60 14/4/14
f 74/4/70 75/2/71 3/2/3
f 74/4/70 3/2/3 13/4/13
f 75/2/71 74/4/70 14/4/14
f 75/2/71 14/4/14 6/2/6
f 75/2/71 73/19/69 70/19/67
f 75/2/71 70/19/67 3/2/3
f 73/19/69 75/2/71 6/2/6
f 73/19/69 6/2/6 71/19/60
f 76/4/72 77/7/73 25/7/24
f 76/4/72 25/7/24 13/4/13
f 77/7/73 76/4/72 14/4/14
f 77/7/73 14/4/14 26/7/25
f 77/7/73 78/6/74 19/6/19
f 77/7/73 19/6/19 25/7/24
f 78/6/74 77/7/73 26/7/25
f 78/6/74 26/7/25 20/6/20
f 78/6/74 76/4/72 13/4/13
f 78/6/74 13/4/13 19/6/19
f 76/4/72 78/6/74 20/6/20
f 76/4/72 20/6/20 14/4/14
f 79/7/75 80/20/76 81/20/77
f 79/7/75 81/20/77 25/7/24
f 80/20/76 79/7/75 26/7/25
f 80/20/76 26/7/25 82/20/5
f 80/20/76 83/8/78 24/8/8
f 80/20/76 24/8/8 81/20/77
f 83/8/78 80/20/76 82/20/5
f 83/8/78 82/20/5 27/8/26
f 83/8/78 79/7/75 25/7/24
f 83/8/78 25/7/24 24/8/8
f 79/7/75 83/8/78 27/8/26
f 79/7/75 27/8/26 26/7/25
f 84/21/79 85/22/80 86/22/19
f 84/21/79 86/22/19 87/21/81
f 85/22/80 84/21/79 88/21/15
f 85/22/80 88/21/15 89/22/20
f 85/22/80 90/23/82 91/23/8
f 85/22/80 91/23/8 86/22/19
f 90/23/82 85/22/80 89/22/20
f 90/23/82 89/22/20 92/23/9
f 90/23/82 93/24/83 94/24/84
f 90/23/82 94/24/84 91/23/8
f 93/24/83 90/23/82 92/23/9
f 93/24/83 92/23/9 95/24/85
f 93/24/83 84/21/79 87/21/81
f 93/24/83 87/21/81 94/24/84
f 84/21/79 93/24/83 95/24/85
f 84/21/79 95/24/85 88/21/15
f 96/25/86 97/26/87 98/26/50
f 96/25/86 98/26/50 99/25/88
f 97/26/87 96/25/86 100/25/89
f 97/26/87 100/25/89 101/26/90
f 97/26/87 102/27/91 103/27/92
f 97/26/87 103/27/92 98/26/50
f 102/27/91 97/26/87 101/26/90
f 102/27/91 101/26/90 104/27/32
f 102/27/91 105/28/93 106/28/35
f 102/27/91 106/28/35 103/27/92
f 105/28/93 102/27/91 104/27/32
f 105/28/93 104/27/32 107/28/36
f 105/28/93 108/29/94 109/29/95
f 105/28/93 109/29/95 106/28/35
f 108/29/94 105/28/93 107/28/36
f 108/29/94 107/28/36 110/29/96
f 108/29/94 96/25/86 99/25/88
f 108/29/94 99/25/88 109/29/95
f 96/25/86 108/29/94 110/29/96
f 96/25/86 110/29/96 100/25/89
o z.002_ZAxis_0
v -0.001143 0.410489 -0.038263
v -0.000768 0.087143 -0.037812
v 0.009910 0.079902 -0.029830
v 0.009204 1.086655 -0.030911
v 0.020603 1.106867 -0.057152
v 0.022278 0.059355 -0.055362
v -0.016649 0.087143 -0.033277
v -0.023002 0.080084 -0.019909
v -0.045702 0.059172 -0.036475
v -0.014426 1.069455 -0.096929
v 0.007913 1.209775 -0.023285
v -0.000009 1.249637 -0.000032
v -0.029374 1.060421 -0.096819
v -0.038684 1.046399 -0.127539
v 0.000010 1.284667 0.000032
v 0.068542 1.069240 -0.063796
v 0.079283 1.060443 -0.052664
v 0.105421 1.045723 -0.070752
v 0.085884 1.069167 -0.039008
v 0.027135 1.205347 0.000247
v 0.087898 1.069329 0.040848
v 0.082486 1.060453 0.054532
v 0.108549 1.046220 0.073112
v 0.070730 1.069490 0.064331
v 0.006495 1.213279 0.021411
v -0.023088 1.069399 0.092830
v -0.038319 1.060327 0.091239
v -0.049660 1.046076 0.121161
v -0.050413 1.069221 0.082850
v -0.022424 1.205347 0.015280
v -0.093088 1.069155 0.015280
v -0.095171 1.060457 0.000256
v -0.126954 1.045739 -0.000257
v -0.092426 1.069252 -0.014965
v -0.019516 1.209775 -0.014965
v -0.041855 1.069457 -0.088607
v 0.036676 0.087143 0.005478
v 0.022980 0.087143 -0.026525
v 0.009910 0.079902 -0.029830
v 0.031072 0.079553 0.014376
v 0.056143 0.059704 0.028677
v 0.022278 0.059355 -0.055362
v 0.021406 1.079246 -0.027735
v 0.009204 1.086655 -0.030911
v 0.020603 1.106867 -0.057152
v 0.035669 1.079246 0.007980
v 0.029579 1.086893 0.017090
v 0.054672 1.106629 0.031507
v -0.016561 0.087143 0.031103
v 0.026285 0.087143 0.024329
v -0.024531 0.079460 0.022778
v -0.043202 0.059797 0.044955
v 0.024761 1.079246 0.026337
v -0.015968 1.079246 0.031273
v -0.024185 1.086552 0.022462
v -0.042515 1.106970 0.044237
v -0.035681 1.079246 -0.007131
v -0.034256 0.087143 -0.010615
v -0.024995 1.086397 -0.016730
v -0.048500 1.107125 -0.032378
v -0.033995 0.087143 0.016343
v -0.034385 1.079246 0.015874
v 0.004996 1.096761 -0.021576
v -0.018507 1.096761 -0.012713
v -0.024995 1.086397 -0.016730
v 0.009204 1.086655 -0.030911
v 0.020603 1.106867 -0.057152
v -0.048500 1.107125 -0.032378
v -0.016955 1.096761 0.013743
v -0.024185 1.086552 0.022462
v -0.042515 1.106970 0.044237
v 0.017424 1.096761 0.009620
v 0.029579 1.086893 0.017090
v 0.054672 1.106629 0.031507
v -0.020318 1.079246 -0.030796
v -0.002345 1.079246 -0.037573
v -0.019485 0.721848 -0.032062
v 0.018644 0.069628 0.007767
v -0.016511 0.069628 0.013367
v -0.024531 0.079460 0.022778
v 0.031072 0.079553 0.014376
v 0.056143 0.059704 0.028677
v -0.043202 0.059797 0.044955
v -0.016733 0.069628 -0.015008
v -0.023002 0.080084 -0.019909
v -0.045702 0.059172 -0.036475
v 0.006078 0.069628 -0.021521
v 0.009910 0.079902 -0.029830
v 0.022278 0.059355 -0.055362
v -0.036309 1.053203 0.085561
v -0.090093 1.053157 0.000403
v -0.095171 1.060457 0.000256
v -0.038319 1.060327 0.091239
v -0.049660 1.046076 0.121161
v -0.126954 1.045739 -0.000257
v -0.027518 1.053326 -0.090719
v -0.029374 1.060421 -0.096819
v -0.038684 1.046399 -0.127539
v 0.075134 1.053167 -0.049724
v 0.079283 1.060443 -0.052664
v 0.105421 1.045723 -0.070752
v 0.077672 1.053283 0.050938
v 0.082486 1.060453 0.054532
v 0.108549 1.046220 0.073112
vn -0.4304 -0.1222 -0.8943
vn -0.7144 0.6413 -0.2799
vn -0.3484 0.5551 0.7553
vn -0.2816 -0.5638 0.7764
vn 0.3170 0.6024 -0.7325
vn 0.3520 -0.5912 -0.7256
vn 0.5058 0.6713 -0.5418
vn 0.6566 0.5182 0.5480
vn -0.6245 -0.6259 -0.4673
vn 0.6029 0.7955 0.0603
vn 0.2417 -0.6615 -0.7099
vn -0.0001 -1.0000 -0.0002
vn 0.2811 0.2515 0.9261
vn -0.2664 -0.3977 -0.8780
vn 0.0007 1.0000 0.0022
vn -0.4818 0.8004 -0.3567
vn -0.7965 0.2414 0.5543
vn 0.7455 -0.4234 -0.5147
vn 0.1621 0.8055 0.5700
vn 0.7685 -0.6398 0.0068
vn 0.1442 0.8019 -0.5797
vn -0.7851 0.2518 -0.5659
vn 0.7447 -0.4054 0.5302
vn -0.5167 0.7890 0.3324
vn 0.2130 -0.6773 0.7042
vn 0.6132 0.7898 -0.0105
vn 0.3380 0.2523 -0.9067
vn -0.3245 -0.4062 0.8542
vn -0.4415 0.8025 -0.4012
vn -0.6346 -0.6399 0.4334
vn 0.1821 0.8050 0.5646
vn 0.9703 0.2413 0.0191
vn -0.9059 -0.4232 -0.0141
vn 0.2025 0.8003 -0.5644
vn -0.5953 -0.6614 -0.4563
vn -0.4678 0.7955 0.3852
vn 0.2199 0.6145 -0.7576
vn 0.6659 0.6189 0.4165
vn -0.3485 0.5551 0.7553
vn -0.6876 0.6199 -0.3782
vn 0.7241 -0.5551 0.4094
vn 0.3522 -0.5911 -0.7257
vn 0.6688 -0.6099 0.4251
vn 0.3171 0.6024 -0.7325
vn 0.2192 -0.6097 -0.7617
vn -0.6735 -0.6230 -0.3978
vn 0.7193 0.5522 0.4215
vn 0.7063 0.5987 0.3777
vn -0.5556 0.6029 0.5725
vn 0.5180 0.6065 -0.6032
vn -0.5319 -0.5561 0.6386
vn -0.5600 -0.6000 0.5713
vn 0.6977 -0.6056 0.3829
vn 0.5262 -0.5845 -0.6176
vn -0.5189 0.5801 0.6279
vn -0.4142 -0.6366 0.6506
vn -0.4159 0.6337 0.6523
vn 0.7105 -0.5274 0.4659
vn -0.6671 0.6013 -0.4399
vn -0.5033 0.6252 -0.5965
vn -0.5088 -0.6380 -0.5780
vn -0.3287 0.4750 0.8163
vn 0.7444 0.4567 0.4871
vn 0.7105 -0.5275 0.4659
vn -0.2816 -0.5639 0.7764
vn 0.3170 0.6025 -0.7325
vn -0.6671 0.6013 -0.4398
vn 0.5890 0.4711 -0.6566
vn 0.5262 -0.5846 -0.6176
vn -0.5188 0.5802 0.6279
vn -0.7574 0.4796 -0.4431
vn 0.7194 0.5522 0.4214
vn 0.4395 -0.6407 -0.6295
vn -0.7218 -0.6743 -0.1560
vn -0.1041 0.1331 -0.9856
vn -0.7757 -0.4822 -0.4072
vn 0.5890 -0.4826 -0.6482
vn 0.5180 0.6066 -0.6031
vn -0.6875 0.6199 -0.3781
vn -0.5320 -0.5561 0.6386
vn 0.7065 -0.4555 0.5417
vn -0.6244 -0.6259 -0.4673
vn -0.3600 -0.4625 0.8102
vn 0.3522 -0.5912 -0.7256
vn 0.3059 -0.5308 -0.7904
vn 0.8523 -0.5229 0.0120
vn 0.3381 0.2524 -0.9067
vn -0.3244 -0.4063 0.8542
vn -0.9059 -0.4232 -0.0140
vn 0.2447 -0.5373 0.8071
vn 0.2811 0.2516 0.9261
vn -0.2665 -0.3977 -0.8780
vn -0.7019 -0.5229 0.4837
vn 0.7455 -0.4235 -0.5147
vn -0.6930 -0.5315 -0.4870
vn 0.7447 -0.4054 0.5301
vt 0.020810 0.000000
vt 0.018433 0.500000
vt 0.141262 0.500000
vt 0.187176 0.542896
vt 0.250000 0.750000
vt 0.442162 0.622014
vt 0.434094 0.873914
vt 0.164249 0.954728
vt 0.019118 0.749657
vt 0.675193 0.500000
vt 0.937468 0.500000
vt 0.933333 0.000000
vt 0.666939 0.000000
vt 0.373965 0.500000
vt 0.374208 0.000000
vt 0.156555 0.000000
vt 0.319641 0.545035
vt 0.058292 0.622448
vt 0.099535 0.899087
vt 0.426597 0.851623
vt 0.931873 0.842420
vt 0.601344 0.896520
vt 0.573545 0.606358
vt 0.827514 0.542039
vt 0.664249 0.954728
vt 0.519118 0.749657
vt 0.687176 0.542896
vt 0.942162 0.622014
vt 0.934094 0.873914
s 1
usemtl ZAxis
f 111/30/97 112/31/98 113/31/99
f 111/30/97 113/31/99 114/30/100
f 112/31/98 111/30/97 115/30/101
f 112/31/98 115/30/101 116/31/102
f 112/31/98 117/32/103 118/32/104
f 112/31/98 118/32/104 113/31/99
f 117/32/103 112/31/98 116/31/102
f 117/32/103 116/31/102 119/32/105
f 117/32/103 111/30/97 114/30/100
f 117/32/103 114/30/100 118/32/104
f 111/30/97 117/32/103 119/32/105
f 111/30/97 119/32/105 115/30/101
f 120/33/106 121/34/107 122/34/108
f 120/33/106 122/34/108 123/33/109
f 121/34/107 120/33/106 124/33/110
f 121/34/107 124/33/110 125/34/111
f 121/34/107 126/35/112 127/35/113
f 121/34/107 127/35/113 122/34/108
f 126/35/112 121/34/107 125/34/111
f 126/35/112 125/34/111 128/35/114
f 126/35/112 120/33/106 123/33/109
f 126/35/112 123/33/109 127/35/113
f 120/33/106 126/35/112 128/35/114
f 120/33/106 128/35/114 124/33/110
f 129/35/115 130/34/116 122/34/108
f 129/35/115 122/34/108 127/35/113
f 130/34/116 129/35/115 128/35/114
f 130/34/116 128/35/114 125/34/111
f 130/34/116 131/36/117 132/36/118
f 130/34/116 132/36/118 122/34/108
f 131/36/117 130/34/116 125/34/111
f 131/36/117 125/34/111 133/36/119
f 131/36/117 129/35/115 127/35/113
f 131/36/117 127/35/113 132/36/118
f 129/35/115 131/36/117 133/36/119
f 129/35/115 133/36/119 128/35/114
f 134/36/120 135/34/121 122/34/108
f 134/36/120 122/34/108 132/36/118
f 135/34/121 134/36/120 133/36/119
f 135/34/121 133/36/119 125/34/111
f 135/34/121 136/37/122 137/37/123
f 135/34/121 137/37/123 122/34/108
f 136/37/122 135/34/121 125/34/111
f 136/37/122 125/34/111 138/37/124
f 136/37/122 134/36/120 132/36/118
f 136/37/122 132/36/118 137/37/123
f 134/36/120 136/37/122 138/37/124
f 134/36/120 138/37/124 133/36/119
f 139/37/125 140/34/126 122/34/108
f 139/37/125 122/34/108 137/37/123
f 140/34/126 139/37/125 138/37/124
f 140/34/126 138/37/124 125/34/111
f 140/34/126 141/38/127 142/38/128
f 140/34/126 142/38/128 122/34/108
f 141/38/127 140/34/126 125/34/111
f 141/38/127 125/34/111 143/38/129
f 141/38/127 139/37/125 137/37/123
f 141/38/127 137/37/123 142/38/128
f 139/37/125 141/38/127 143/38/129
f 139/37/125 143/38/129 138/37/124
f 144/38/130 145/34/131 122/34/108
f 144/38/130 122/34/108 142/38/128
f 145/34/131 144/38/130 143/38/129
f 145/34/131 143/38/129 125/34/111
f 145/34/131 146/33/132 123/33/109
f 145/34/131 123/33/109 122/34/108
f 146/33/132 145/34/131 125/34/111
f 146/33/132 125/34/111 124/33/110
f 146/33/132 144/38/130 142/38/128
f 146/33/132 142/38/128 123/33/109
f 144/38/130 146/33/132 124/33/110
f 144/38/130 124/33/110 143/38/129
f 147/39/133 148/40/134 149/40/135
f 147/39/133 149/40/135 150/39/136
f 148/40/134 147/39/133 151/39/137
f 148/40/134 151/39/137 152/40/138
f 148/40/134 153/41/139 154/41/100
f 148/40/134 154/41/100 149/40/135
f 153/41/139 148/40/134 152/40/138
f 153/41/139 152/40/138 155/41/140
f 153/41/139 156/42/141 157/42/142
f 153/41/139 157/42/142 154/41/100
f 156/42/141 153/41/139 155/41/140
f 156/42/141 155/41/140 158/42/143
f 156/42/141 147/39/133 150/39/136
f 156/42/141 150/39/136 157/42/142
f 147/39/133 156/42/141 158/42/143
f 147/39/133 158/42/143 151/39/137
f 159/43/144 160/39/145 150/39/136
f 159/43/144 150/39/136 161/43/146
f 160/39/145 159/43/144 162/43/147
f 160/39/145 162/43/147 151/39/137
f 160/39/145 163/42/148 157/42/142
f 160/39/145 157/42/142 150/39/136
f 163/42/148 160/39/145 151/39/137
f 163/42/148 151/39/137 158/42/143
f 163/42/148 164/44/149 165/44/150
f 163/42/148 165/44/150 157/42/142
f 164/44/149 163/42/148 158/42/143
f 164/44/149 158/42/143 166/44/151
f 164/44/149 159/43/144 161/43/146
f 164/44/149 161/43/146 165/44/150
f 159/43/144 164/44/149 166/44/151
f 159/43/144 166/44/151 162/43/147
f 167/45/152 168/32/153 118/32/104
f 167/45/152 118/32/104 169/45/154
f 168/32/153 167/45/152 170/45/155
f 168/32/153 170/45/155 119/32/105
f 168/32/153 171/43/156 161/43/146
f 168/32/153 161/43/146 118/32/104
f 171/43/156 168/32/153 119/32/105
f 171/43/156 119/32/105 162/43/147
f 171/43/156 172/44/157 165/44/150
f 171/43/156 165/44/150 161/43/146
f 172/44/157 171/43/156 162/43/147
f 172/44/157 162/43/147 166/44/151
f 172/44/157 167/45/152 169/45/154
f 172/44/157 169/45/154 165/44/150
f 167/45/152 172/44/157 166/44/151
f 167/45/152 166/44/151 170/45/155
f 173/46/158 174/47/159 175/47/160
f 173/46/158 175/47/160 176/46/161
f 174/47/159 173/46/158 177/46/162
f 174/47/159 177/46/162 178/47/163
f 174/47/159 179/48/164 180/48/165
f 174/47/159 180/48/165 175/47/160
f 179/48/164 174/47/159 178/47/163
f 179/48/164 178/47/163 181/48/166
f 179/48/164 182/49/167 183/49/142
f 179/48/164 183/49/142 180/48/165
f 182/49/167 179/48/164 181/48/166
f 182/49/167 181/48/166 184/49/168
f 182/49/167 173/46/158 176/46/161
f 182/49/167 176/46/161 183/49/142
f 173/46/158 182/49/167 184/49/168
f 173/46/158 184/49/168 177/46/162
f 185/45/169 186/30/170 114/30/100
f 185/45/169 114/30/100 169/45/154
f 186/30/170 185/45/169 170/45/155
f 186/30/170 170/45/155 115/30/101
f 186/30/170 187/32/171 118/32/104
f 186/30/170 118/32/104 114/30/100
f 187/32/171 186/30/170 115/30/101
f 187/32/171 115/30/101 119/32/105
f 187/32/171 185/45/169 169/45/154
f 187/32/171 169/45/154 118/32/104
f 185/45/169 187/32/171 119/32/105
f 185/45/169 119/32/105 170/45/155
f 188/50/172 189/51/173 190/51/174
f 188/50/172 190/51/174 191/50/175
f 189/51/173 188/50/172 192/50/137
f 189/51/173 192/50/137 193/51/176
f 189/51/173 194/52/177 195/52/104
f 189/51/173 195/52/104 190/51/174
f 194/52/177 189/51/173 193/51/176
f 194/52/177 193/51/176 196/52/178
f 194/52/177 197/53/179 198/53/99
f 194/52/177 198/53/99 195/52/104
f 197/53/179 194/52/177 196/52/178
f 197/53/179 196/52/178 199/53/180
f 197/53/179 188/50/172 191/50/175
f 197/53/179 191/50/175 198/53/99
f 188/50/172 197/53/179 199/53/180
f 188/50/172 199/53/180 192/50/137
f 200/54/181 201/55/182 202/55/128
f 200/54/181 202/55/128 203/54/183
f 201/55/182 200/54/181 204/54/184
f 201/55/182 204/54/184 205/55/185
f 201/55/182 206/56/186 207/56/187
f 201/55/182 207/56/187 202/55/128
f 206/56/186 201/55/182 205/55/185
f 206/56/186 205/55/185 208/56/188
f 206/56/186 209/57/189 210/57/113
f 206/56/186 210/57/113 207/56/187
f 209/57/189 206/56/186 208/56/188
f 209/57/189 208/56/188 211/57/190
f 209/57/189 212/58/191 213/58/118
f 209/57/189 213/58/118 210/57/113
f 212/58/191 209/57/189 211/57/190
f 212/58/191 211/57/190 214/58/192
f 212/58/191 200/54/181 203/54/183
f 212/58/191 203/54/183 213/58/118
f 200/54/181 212/58/191 214/58/192
f 200/54/181 214/58/192 204/54/184
o z.002_YAxis_0
v 0.039027 0.019932 0.396552
v 0.036995 0.005415 0.056116
v 0.026308 -0.005226 0.049072
v 0.031054 0.025317 1.055704
v 0.057444 0.036640 1.075764
v 0.049927 -0.020413 0.028131
v 0.035747 0.023200 0.056116
v 0.023453 0.032061 0.049130
v 0.045251 0.049622 0.028073
v 0.021261 -0.019289 0.056116
v 0.013981 -0.024717 0.343171
v 0.007547 -0.018758 1.055510
v 0.016594 -0.045723 1.075958
v 0.008222 -0.024166 0.056116
v -0.005630 -0.016655 0.049230
v -0.011444 -0.043883 0.027973
v -0.031576 -0.010271 0.381996
v -0.033493 -0.005888 0.056116
v -0.032034 0.008058 0.048949
v -0.027332 -0.001100 1.055343
v -0.052762 -0.013285 1.076125
v -0.060151 0.005187 0.028254
v -0.021578 -0.017593 0.056116
v -0.028194 0.039596 0.457012
v -0.023061 0.041083 0.056116
v -0.008392 0.042368 0.048992
v -0.019078 0.039497 1.055585
v -0.033328 0.064234 1.075883
v -0.017712 0.068983 0.028211
v -0.035957 0.021937 0.056116
v 0.050721 0.093751 1.038004
v 0.025949 0.033946 1.162765
v -0.000076 0.012684 1.218610
v 0.036022 0.100877 1.029702
v 0.048979 0.129631 1.014458
v 0.000076 0.012616 1.253639
v 0.089443 0.046576 1.037994
v 0.093364 0.031475 1.029568
v 0.124501 0.037161 1.014560
v 0.094961 0.015668 1.038054
v 0.028289 0.002406 1.169069
v 0.072112 -0.050993 1.038082
v 0.061342 -0.062477 1.029506
v 0.081858 -0.086713 1.014716
v 0.048528 -0.071126 1.038022
v 0.006755 -0.020224 1.162884
v -0.011802 -0.081398 1.037985
v -0.027722 -0.077027 1.029780
v -0.035891 -0.107377 1.014314
v -0.043204 -0.073164 1.037878
v -0.027243 -0.020545 1.145310
v -0.075738 -0.046467 1.037873
v -0.082684 -0.031820 1.029814
v -0.110589 -0.046187 1.014259
v -0.090597 -0.017370 1.037925
v -0.037720 0.010893 1.155069
v -0.093861 0.034148 1.037952
v -0.087961 0.049343 1.029749
v -0.117242 0.060954 1.014424
v -0.082042 0.064243 1.037902
v -0.030477 0.042884 1.145471
v -0.051326 0.093217 1.037870
v -0.035511 0.098374 1.029955
v -0.047458 0.127229 1.014091
v -0.020677 0.105913 1.037868
v 0.000172 0.055579 1.145471
v 0.021532 0.107146 1.037897
v 0.027286 0.036125 1.048219
v 0.017804 0.045905 0.056116
v 0.003441 0.050379 0.056116
v -0.008392 0.042368 0.048992
v -0.017712 0.068983 0.028211
v -0.009185 0.046952 1.048219
v -0.019078 0.039497 1.055585
v -0.033328 0.064234 1.075883
v 0.004227 -0.009038 1.065734
v 0.019093 0.020168 1.065734
v 0.031054 0.025317 1.055704
v 0.007547 -0.018758 1.055510
v 0.016594 -0.045723 1.075958
v 0.057444 0.036640 1.075764
v -0.013386 0.029797 1.065734
v -0.019078 0.039497 1.055585
v -0.033328 0.064234 1.075883
v -0.019785 0.002502 1.065734
v -0.027332 -0.001100 1.055343
v -0.052762 -0.013285 1.076125
v 0.036193 0.014609 1.048221
v 0.020463 -0.016294 1.048221
v 0.033196 -0.006800 0.546129
v -0.004070 -0.024618 1.048219
v -0.023712 -0.015178 1.048219
v -0.011837 -0.023875 0.661114
v -0.036152 0.010097 1.048220
v -0.030544 0.034022 1.048220
v -0.038602 0.015693 0.632113
v -0.005820 0.035060 0.038601
v 0.017716 0.027695 0.038601
v 0.023453 0.032061 0.049130
v -0.008392 0.042368 0.048992
v -0.017712 0.068983 0.028211
v 0.045251 0.049622 0.028073
v 0.019730 -0.000997 0.038601
v 0.026308 -0.005226 0.049072
v 0.049927 -0.020413 0.028131
v -0.004223 -0.009956 0.038601
v -0.005630 -0.016655 0.049230
v -0.011444 -0.043883 0.027973
v -0.023431 0.008914 0.038601
v -0.032034 0.008058 0.048949
v -0.060151 0.005187 0.028254
v -0.079638 -0.030295 1.022052
v -0.084602 0.048050 1.022057
v -0.087961 0.049343 1.029749
v -0.082684 -0.031820 1.029814
v -0.110589 -0.046187 1.014259
v -0.117242 0.060954 1.014424
v -0.034313 0.095489 1.022061
v -0.035511 0.098374 1.029955
v -0.047458 0.127229 1.014091
v 0.034417 0.097496 1.022062
v 0.036022 0.100877 1.029702
v 0.048979 0.129631 1.014458
v 0.089196 0.030756 1.022076
v 0.093364 0.031475 1.029568
v 0.124501 0.037161 1.014560
v 0.058405 -0.059075 1.022091
v 0.061342 -0.062477 1.029506
v 0.081858 -0.086713 1.014716
v -0.026871 -0.073594 1.022058
v -0.027722 -0.077027 1.029780
v -0.035891 -0.107377 1.014314
vn 0.9855 -0.0420 -0.1645
vn 0.3556 0.6589 0.6629
vn -0.7282 0.4551 0.5125
vn -0.7450 -0.2905 -0.6005
vn 0.7298 0.3091 0.6098
vn 0.6531 -0.4153 -0.6332
vn 0.4733 -0.5942 0.6503
vn -0.6794 -0.5237 0.5140
vn 0.6293 0.4857 -0.6067
vn -0.4365 -0.6150 0.6567
vn 0.3825 -0.9104 -0.1578
vn -0.2650 0.7814 -0.5650
vn 0.2569 -0.7425 0.6186
vn 0.7363 -0.1620 0.6569
vn 0.1937 0.8487 0.4922
vn -0.1635 -0.7494 -0.6416
vn -0.6610 -0.7340 -0.1559
vn 0.1243 -0.7493 0.6505
vn 0.8442 0.0557 0.5330
vn 0.7542 0.3865 -0.5308
vn -0.7005 -0.3395 0.6277
vn -0.7791 -0.0707 -0.6229
vn -0.7277 0.1773 0.6625
vn -0.9023 0.3967 -0.1688
vn -0.7151 -0.2770 0.6419
vn 0.2842 -0.7999 0.5285
vn 0.4450 -0.6855 -0.5762
vn -0.3979 0.6824 0.6132
vn -0.2746 0.7528 -0.5982
vn 0.0276 0.7454 0.6660
vn 0.4591 -0.3312 0.8244
vn 0.6005 0.4815 -0.6384
vn 0.0081 -0.0037 -1.0000
vn -0.4079 -0.8974 0.1683
vn 0.3680 0.8178 -0.4426
vn 0.0107 -0.0047 0.9999
vn -0.2280 0.5154 0.8260
vn -0.9655 -0.1751 0.1926
vn 0.8865 0.1619 -0.4334
vn -0.0380 -0.5736 0.8182
vn 0.7162 -0.2562 -0.6492
vn 0.3277 0.4756 0.8164
vn -0.6346 0.7479 0.1945
vn 0.5844 -0.6906 -0.4261
vn -0.5108 -0.2453 0.8240
vn 0.1570 -0.7529 -0.6392
vn 0.5618 -0.0447 0.8261
vn 0.2528 0.9530 0.1671
vn -0.2329 -0.8620 -0.4502
vn -0.4966 0.2275 0.8377
vn -0.5080 -0.6196 -0.5984
vn 0.3226 -0.4413 0.8374
vn 0.8796 0.4494 0.1563
vn -0.7918 -0.4092 -0.4533
vn -0.1741 0.5216 0.8353
vn -0.7697 -0.0394 -0.6371
vn -0.1125 -0.5414 0.8332
vn 0.9189 -0.3620 0.1565
vn -0.8320 0.3309 -0.4453
vn 0.2839 0.4672 0.8373
vn -0.5562 0.5623 -0.6120
vn -0.4719 -0.2653 0.8408
vn 0.3788 -0.9136 0.1476
vn -0.3384 0.8184 -0.4645
vn 0.5237 0.1443 0.8396
vn -0.0040 0.7956 -0.6059
vn -0.5320 0.1307 0.8366
vn -0.4865 0.6286 -0.6068
vn -0.4283 0.6113 0.6655
vn 0.6990 0.2691 0.6626
vn -0.2745 0.7529 -0.5982
vn 0.7542 0.2492 -0.6076
vn 0.4449 -0.6856 -0.5762
vn -0.3978 0.6824 0.6133
vn -0.2637 0.8425 0.4697
vn -0.8100 -0.3432 0.4756
vn -0.7450 -0.2904 -0.6005
vn -0.2649 0.7813 -0.5651
vn 0.4599 -0.7515 0.4731
vn 0.4449 -0.6855 -0.5763
vn -0.3978 0.6823 0.6133
vn 0.8003 0.3871 0.4578
vn 0.0767 -0.7767 -0.6252
vn 0.6774 0.4040 -0.6147
vn 0.9144 -0.3523 0.1993
vn -0.7599 -0.1277 -0.6373
vn 0.4156 -0.6398 -0.6464
vn -0.4523 -0.8770 0.1620
vn -0.2696 0.7291 -0.6291
vn -0.5465 -0.5253 -0.6523
vn -0.8979 0.4086 0.1640
vn 0.2829 -0.8296 -0.4814
vn -0.6896 -0.5458 -0.4759
vn 0.6292 0.4857 -0.6067
vn -0.7324 0.4747 -0.4882
vn 0.1803 0.8655 -0.4673
vn 0.1937 0.8486 0.4922
vn 0.8650 0.0947 -0.4927
vn 0.8442 0.0557 0.5331
vn 0.7413 0.3813 -0.5524
vn 0.7690 -0.3062 -0.5611
vn 0.9189 -0.3620 0.1566
vn 0.8796 0.4494 0.1564
vn -0.7918 -0.4093 -0.4534
vn -0.8320 0.3307 -0.4454
vn 0.3214 -0.7745 -0.5447
vn 0.3788 -0.9136 0.1477
vn -0.3385 0.8183 -0.4645
vn -0.3369 -0.7597 -0.5561
vn 0.3679 0.8178 -0.4427
vn -0.8203 -0.1534 -0.5510
vn -0.9655 -0.1751 0.1927
vn -0.5339 0.6365 -0.5566
vn -0.6346 0.7479 0.1946
vn 0.5845 -0.6905 -0.4261
vn 0.2212 0.8063 -0.5485
vn 0.2528 0.9530 0.1672
vn -0.2328 -0.8620 -0.4503
vt 0.813904 0.000000
vt 0.656789 0.500000
vt 0.860012 0.500000
vt 0.542970 0.000000
vt 0.469018 0.500000
vt 0.323796 0.000000
vt 0.269912 0.500000
vt 0.097803 0.000000
vt 0.052734 0.500000
vt 0.337865 0.536527
vt 0.250000 0.750000
vt 0.476311 0.704457
vt 0.394742 0.924609
vt 0.181999 0.974168
vt 0.043406 0.860427
vt 0.036528 0.662135
vt 0.159195 0.531161
vt 0.981567 0.500000
vt 0.987183 0.000000
vt 0.307735 0.958951
vt 0.442013 0.668235
vt 0.130529 0.574607
vt 0.047239 0.851273
vt 0.684742 0.533853
vt 0.925306 0.604958
vt 0.933832 0.871931
vt 0.705222 0.976920
vt 0.535434 0.777115
vt 0.543406 0.860427
vt 0.536528 0.662135
vt 0.659195 0.531161
vt 0.837865 0.536527
vt 0.976311 0.704457
vt 0.894742 0.924609
vt 0.681999 0.974168
s 1
usemtl YAxis
f 215/59/193 216/60/194 217/60/195
f 215/59/193 217/60/195 218/59/196
f 216/60/194 215/59/193 219/59/197
f 216/60/194 219/59/197 220/60/198
f 216/60/194 221/61/199 222/61/200
f 216/60/194 222/61/200 217/60/195
f 221/61/199 216/60/194 220/60/198
f 221/61/199 220/60/198 223/61/201
f 221/61/199 215/59/193 218/59/196
f 221/61/199 218/59/196 222/61/200
f 215/59/193 221/61/199 223/61/201
f 215/59/193 223/61/201 219/59/197
f 224/60/202 225/62/203 226/62/204
f 224/60/202 226/62/204 217/60/195
f 225/62/203 224/60/202 220/60/198
f 225/62/203 220/60/198 227/62/205
f 225/62/203 228/63/206 229/63/207
f 225/62/203 229/63/207 226/62/204
f 228/63/206 225/62/203 227/62/205
f 228/63/206 227/62/205 230/63/208
f 228/63/206 224/60/202 217/60/195
f 228/63/206 217/60/195 229/63/207
f 224/60/202 228/63/206 230/63/208
f 224/60/202 230/63/208 220/60/198
f 231/64/209 232/65/210 233/65/211
f 231/64/209 233/65/211 234/64/212
f 232/65/210 231/64/209 235/64/213
f 232/65/210 235/64/213 236/65/214
f 232/65/210 237/63/215 229/63/207
f 232/65/210 229/63/207 233/65/211
f 237/63/215 232/65/210 236/65/214
f 237/63/215 236/65/214 230/63/208
f 237/63/215 231/64/209 234/64/212
f 237/63/215 234/64/212 229/63/207
f 231/64/209 237/63/215 230/63/208
f 231/64/209 230/63/208 235/64/213
f 238/66/216 239/67/217 240/67/218
f 238/66/216 240/67/218 241/66/219
f 239/67/217 238/66/216 242/66/220
f 239/67/217 242/66/220 243/67/221
f 239/67/217 244/65/222 233/65/211
f 239/67/217 233/65/211 240/67/218
f 244/65/222 239/67/217 243/67/221
f 244/65/222 243/67/221 236/65/214
f 244/65/222 238/66/216 241/66/219
f 244/65/222 241/66/219 233/65/211
f 238/66/216 244/65/222 236/65/214
f 238/66/216 236/65/214 242/66/220
f 245/68/223 246/69/224 247/69/225
f 245/68/223 247/69/225 248/68/226
f 246/69/224 245/68/223 249/68/227
f 246/69/224 249/68/227 250/69/228
f 246/69/224 251/70/229 252/70/230
f 246/69/224 252/70/230 247/69/225
f 251/70/229 246/69/224 250/69/228
f 251/70/229 250/69/228 253/70/231
f 251/70/229 245/68/223 248/68/226
f 251/70/229 248/68/226 252/70/230
f 245/68/223 251/70/229 253/70/231
f 245/68/223 253/70/231 249/68/227
f 254/70/232 255/69/233 247/69/225
f 254/70/232 247/69/225 252/70/230
f 255/69/233 254/70/232 253/70/231
f 255/69/233 253/70/231 250/69/228
f 255/69/233 256/71/234 257/71/235
f 255/69/233 257/71/235 247/69/225
f 256/71/234 255/69/233 250/69/228
f 256/71/234 250/69/228 258/71/236
f 256/71/234 254/70/232 252/70/230
f 256/71/234 252/70/230 257/71/235
f 254/70/232 256/71/234 258/71/236
f 254/70/232 258/71/236 253/70/231
f 259/71/237 260/69/238 247/69/225
f 259/71/237 247/69/225 257/71/235
f 260/69/238 259/71/237 258/71/236
f 260/69/238 258/71/236 250/69/228
f 260/69/238 261/72/239 262/72/240
f 260/69/238 262/72/240 247/69/225
f 261/72/239 260/69/238 250/69/228
f 261/72/239 250/69/228 263/72/241
f 261/72/239 259/71/237 257/71/235
f 261/72/239 257/71/235 262/72/240
f 259/71/237 261/72/239 263/72/241
f 259/71/237 263/72/241 258/71/236
f 264/72/242 265/69/243 247/69/225
f 264/72/242 247/69/225 262/72/240
f 265/69/243 264/72/242 263/72/241
f 265/69/243 263/72/241 250/69/228
f 265/69/243 266/73/244 267/73/245
f 265/69/243 267/73/245 247/69/225
f 266/73/244 265/69/243 250/69/228
f 266/73/244 250/69/228 268/73/246
f 266/73/244 264/72/242 262/72/240
f 266/73/244 262/72/240 267/73/245
f 264/72/242 266/73/244 268/73/246
f 264/72/242 268/73/246 263/72/241
f 269/73/247 270/69/248 247/69/225
f 269/73/247 247/69/225 267/73/245
f 270/69/248 269/73/247 268/73/246
f 270/69/248 268/73/246 250/69/228
f 270/69/248 271/74/249 272/74/250
f 270/69/248 272/74/250 247/69/225
f 271/74/249 270/69/248 250/69/228
f 271/74/249 250/69/228 273/74/251
f 271/74/249 269/73/247 267/73/245
f 271/74/249 267/73/245 272/74/250
f 269/73/247 271/74/249 273/74/251
f 269/73/247 273/74/251 268/73/246
f 274/74/252 275/69/253 247/69/225
f 274/74/252 247/69/225 272/74/250
f 275/69/253 274/74/252 273/74/251
f 275/69/253 273/74/251 250/69/228
f 275/69/253 276/75/254 277/75/255
f 275/69/253 277/75/255 247/69/225
f 276/75/254 275/69/253 250/69/228
f 276/75/254 250/69/228 278/75/256
f 276/75/254 274/74/252 272/74/250
f 276/75/254 272/74/250 277/75/255
f 274/74/252 276/75/254 278/75/256
f 274/74/252 278/75/256 273/74/251
f 279/75/257 280/69/258 247/69/225
f 279/75/257 247/69/225 277/75/255
f 280/69/258 279/75/257 278/75/256
f 280/69/258 278/75/256 250/69/228
f 280/69/258 281/68/259 248/68/226
f 280/69/258 248/68/226 247/69/225
f 281/68/259 280/69/258 250/69/228
f 281/68/259 250/69/228 249/68/227
f 281/68/259 279/75/257 277/75/255
f 281/68/259 277/75/255 248/68/226
f 279/75/257 281/68/259 249/68/227
f 279/75/257 249/68/227 278/75/256
f 282/59/260 283/61/261 222/61/200
f 282/59/260 222/61/200 218/59/196
f 283/61/261 282/59/260 219/59/197
f 283/61/261 219/59/197 223/61/201
f 283/61/261 284/76/262 285/76/218
f 283/61/261 285/76/218 222/61/200
f 284/76/262 283/61/261 223/61/201
f 284/76/262 223/61/201 286/76/263
f 284/76/262 287/77/264 288/77/265
f 284/76/262 288/77/265 285/76/218
f 287/77/264 284/76/262 286/76/263
f 287/77/264 286/76/263 289/77/266
f 287/77/264 282/59/260 218/59/196
f 287/77/264 218/59/196 288/77/265
f 282/59/260 287/77/264 289/77/266
f 282/59/260 289/77/266 219/59/197
f 290/78/267 291/79/268 292/79/269
f 290/78/267 292/79/269 293/78/270
f 291/79/268 290/78/267 294/78/205
f 291/79/268 294/78/205 295/79/197
f 291/79/268 296/80/271 297/80/272
f 291/79/268 297/80/272 292/79/269
f 296/80/271 291/79/268 295/79/197
f 296/80/271 295/79/197 298/80/273
f 296/80/271 299/81/274 300/81/212
f 296/80/271 300/81/212 297/80/272
f 299/81/274 296/80/271 298/80/273
f 299/81/274 298/80/273 301/81/213
f 299/81/274 290/78/267 293/78/270
f 299/81/274 293/78/270 300/81/212
f 290/78/267 299/81/274 301/81/213
f 290/78/267 301/81/213 294/78/205
f 302/59/275 303/62/276 226/62/204
f 302/59/275 226/62/204 218/59/196
f 303/62/276 302/59/275 219/59/197
f 303/62/276 219/59/197 227/62/205
f 303/62/276 304/60/277 217/60/195
f 303/62/276 217/60/195 226/62/204
f 304/60/277 303/62/276 227/62/205
f 304/60/277 227/62/205 220/60/198
f 304/60/277 302/59/275 218/59/196
f 304/60/277 218/59/196 217/60/195
f 302/59/275 304/60/277 220/60/198
f 302/59/275 220/60/198 219/59/197
f 305/62/278 306/64/279 234/64/212
f 305/62/278 234/64/212 226/62/204
f 306/64/279 305/62/278 227/62/205
f 306/64/279 227/62/205 235/64/213
f 306/64/279 307/63/280 229/63/207
f 306/64/279 229/63/207 234/64/212
f 307/63/280 306/64/279 235/64/213
f 307/63/280 235/64/213 230/63/208
f 307/63/280 305/62/278 226/62/204
f 307/63/280 226/62/204 229/63/207
f 305/62/278 307/63/280 230/63/208
f 305/62/278 230/63/208 227/62/205
f 308/64/281 309/66/282 241/66/219
f 308/64/281 241/66/219 234/64/212
f 309/66/282 308/64/281 235/64/213
f 309/66/282 235/64/213 242/66/220
f 309/66/282 310/65/283 233/65/211
f 309/66/282 233/65/211 241/66/219
f 310/65/283 309/66/282 242/66/220
f 310/65/283 242/66/220 236/65/214
f 310/65/283 308/64/281 234/64/212
f 310/65/283 234/64/212 233/65/211
f 308/64/281 310/65/283 236/65/214
f 308/64/281 236/65/214 235/64/213
f 311/82/284 312/83/285 313/83/200
f 311/82/284 313/83/200 314/82/218
f 312/83/285 311/82/284 315/82/221
f 312/83/285 315/82/221 316/83/286
f 312/83/285 317/84/287 318/84/195
f 312/83/285 318/84/195 313/83/200
f 317/84/287 312/83/285 316/83/286
f 317/84/287 316/83/286 319/84/198
f 317/84/287 320/85/288 321/85/289
f 317/84/287 321/85/289 318/84/195
f 320/85/288 317/84/287 319/84/198
f 320/85/288 319/84/198 322/85/208
f 320/85/288 323/86/290 324/86/291
f 320/85/288 324/86/291 321/85/289
f 323/86/290 320/85/288 322/85/208
f 323/86/290 322/85/208 325/86/214
f 323/86/290 311/82/284 314/82/218
f 323/86/290 314/82/218 324/86/291
f 311/82/284 323/86/290 325/86/214
f 311/82/284 325/86/214 315/82/221
f 326/87/292 327/88/293 328/88/294
f 326/87/292 328/88/294 329/87/295
f 327/88/293 326/87/292 330/87/296
f 327/88/293 330/87/296 331/88/297
f 327/88/293 332/89/298 333/89/299
f 327/88/293 333/89/299 328/88/294
f 332/89/298 327/88/293 331/88/297
f 332/89/298 331/88/297 334/89/300
f 332/89/298 335/90/301 336/90/226
f 332/89/298 336/90/226 333/89/299
f 335/90/301 332/89/298 334/89/300
f 335/90/301 334/89/300 337/90/302
f 335/90/301 338/91/303 339/91/304
f 335/90/301 339/91/304 336/90/226
f 338/91/303 335/90/301 337/90/302
f 338/91/303 337/90/302 340/91/231
f 338/91/303 341/92/305 342/92/306
f 338/91/303 342/92/306 339/91/304
f 341/92/305 338/91/303 340/91/231
f 341/92/305 340/91/231 343/92/307
f 341/92/305 344/93/308 345/93/309
f 341/92/305 345/93/309 342/92/306
f 344/93/308 341/92/305 343/92/307
f 344/93/308 343/92/307 346/93/310
f 344/93/308 326/87/292 329/87/295
f 344/93/308 329/87/295 345/93/309
f 326/87/292 344/93/308 346/93/310
f 326/87/292 346/93/310 330/87/296
o z.002_Center_0
v -0.088145 0.105660 0.088145
v 0.088145 0.105660 0.088145
v 0.095547 0.095548 0.095547
v -0.095548 0.095548 0.095547
v -0.115772 0.115772 0.115772
v 0.115772 0.115772 0.115772
v 0.088145 0.105660 -0.088145
v 0.095547 0.095548 -0.095548
v 0.115772 0.115772 -0.115772
v -0.088145 0.105660 -0.088145
v -0.095548 0.095548 -0.095548
v -0.115772 0.115772 -0.115772
v -0.088145 -0.088145 0.105660
v 0.088145 -0.088145 0.105660
v 0.095547 -0.095547 0.095548
v -0.095548 -0.095547 0.095548
v -0.115772 -0.115772 0.115772
v 0.115772 -0.115772 0.115772
v 0.088145 0.088145 0.105660
v -0.088145 0.088145 0.105660
v -0.095548 0.095548 0.095547
v -0.115772 0.115772 0.115772
v -0.105660 -0.088145 -0.088145
v -0.105660 -0.088145 0.088145
v -0.095548 -0.095547 0.095548
v -0.095548 -0.095547 -0.095547
v -0.115772 -0.115772 -0.115772
v -0.115772 -0.115772 0.115772
v -0.105660 0.088145 0.088145
v -0.095548 0.095548 0.095547
v -0.115772 0.115772 0.115772
v -0.105660 0.088145 -0.088145
v -0.095548 0.095548 -0.095548
v -0.115772 0.115772 -0.115772
v -0.088145 -0.105660 0.088145
v -0.088145 -0.105660 -0.088145
v -0.095548 -0.095547 -0.095547
v -0.095548 -0.095547 0.095548
v -0.115772 -0.115772 0.115772
v -0.115772 -0.115772 -0.115772
v 0.088145 -0.105660 -0.088145
v 0.095547 -0.095547 -0.095547
v 0.115772 -0.115772 -0.115772
v 0.088145 -0.105660 0.088145
v 0.105660 -0.088145 0.088145
v 0.105660 -0.088145 -0.088145
v 0.105660 0.088145 -0.088145
v 0.105660 0.088145 0.088145
v 0.088145 -0.088145 -0.105660
v -0.088145 -0.088145 -0.105660
v -0.088145 0.088145 -0.105660
v 0.088145 0.088145 -0.105660
vn 0.6242 0.4700 -0.6242
vn -0.6242 0.4700 -0.6242
vn -0.5774 -0.5774 -0.5773
vn 0.5773 -0.5774 -0.5773
vn -0.5773 0.5774 0.5774
vn 0.5774 0.5774 0.5773
vn -0.6242 0.4700 0.6242
vn -0.5774 -0.5773 0.5774
vn 0.5774 0.5773 -0.5774
vn 0.6242 0.4700 0.6242
vn 0.5773 -0.5774 0.5773
vn -0.5774 0.5774 -0.5773
vn 0.6242 0.6242 0.4700
vn -0.6242 0.6242 0.4700
vn -0.5774 0.5774 -0.5774
vn 0.5773 0.5773 -0.5774
vn -0.5773 -0.5774 0.5774
vn 0.5774 -0.5774 0.5774
vn -0.6242 -0.6242 0.4700
vn 0.6242 -0.6242 0.4700
vn 0.5773 -0.5773 -0.5774
vn -0.5774 0.5773 0.5774
vn -0.4700 0.6242 0.6242
vn -0.4700 0.6242 -0.6242
vn 0.5774 0.5773 -0.5773
vn 0.5774 0.5773 0.5774
vn -0.5773 -0.5773 -0.5774
vn -0.4700 -0.6242 -0.6242
vn 0.5774 -0.5773 -0.5773
vn -0.5774 0.5774 0.5773
vn -0.4700 -0.6242 0.6242
vn 0.5774 -0.5773 0.5774
vn -0.5774 0.5773 -0.5773
vn 0.6242 -0.4700 -0.6242
vn 0.6242 -0.4700 0.6242
vn 0.5773 0.5774 0.5773
vn 0.5773 0.5774 -0.5773
vn -0.5774 -0.5774 0.5773
vn -0.5773 -0.5774 -0.5774
vn -0.6242 -0.4700 0.6242
vn 0.5774 -0.5774 -0.5774
vn -0.6242 -0.4700 -0.6242
vn 0.4700 0.6242 -0.6242
vn 0.4700 0.6242 0.6242
vn 0.4700 -0.6242 0.6242
vn 0.4700 -0.6242 -0.6242
vn -0.6242 0.6242 -0.4700
vn 0.6242 0.6242 -0.4700
vn 0.6242 -0.6242 -0.4700
vn -0.6242 -0.6242 -0.4700
vt 0.000000 1.000000
s 1
usemtl Center
f 347/94/311 348/94/312 349/94/313
f 347/94/311 349/94/313 350/94/314
f 348/94/312 347/94/311 351/94/315
f 348/94/312 351/94/315 352/94/316
f 348/94/312 353/94/317 354/94/318
f 348/94/312 354/94/318 349/94/313
f 353/94/317 348/94/312 352/94/316
f 353/94/317 352/94/316 355/94/319
f 353/94/317 356/94/320 357/94/321
f 353/94/317 357/94/321 354/94/318
f 356/94/320 353/94/317 355/94/319
f 356/94/320 355/94/319 358/94/322
f 356/94/320 347/94/311 350/94/314
f 356/94/320 350/94/314 357/94/321
f 347/94/311 356/94/320 358/94/322
f 347/94/311 358/94/322 351/94/315
f 359/94/323 360/94/324 361/94/325
f 359/94/323 361/94/325 362/94/326
f 360/94/324 359/94/323 363/94/327
f 360/94/324 363/94/327 364/94/328
f 360/94/324 365/94/329 349/94/313
f 360/94/324 349/94/313 361/94/325
f 365/94/329 360/94/324 364/94/328
f 365/94/329 364/94/328 352/94/316
f 365/94/329 366/94/330 367/94/331
f 365/94/329 367/94/331 349/94/313
f 366/94/330 365/94/329 352/94/316
f 366/94/330 352/94/316 368/94/332
f 366/94/330 359/94/323 362/94/326
f 366/94/330 362/94/326 367/94/331
f 359/94/323 366/94/330 368/94/332
f 359/94/323 368/94/332 363/94/327
f 369/94/333 370/94/334 371/94/335
f 369/94/333 371/94/335 372/94/336
f 370/94/334 369/94/333 373/94/337
f 370/94/334 373/94/337 374/94/318
f 370/94/334 375/94/338 376/94/339
f 370/94/334 376/94/339 371/94/335
f 375/94/338 370/94/334 374/94/318
f 375/94/338 374/94/318 377/94/340
f 375/94/338 378/94/341 379/94/342
f 375/94/338 379/94/342 376/94/339
f 378/94/341 375/94/338 377/94/340
f 378/94/341 377/94/340 380/94/343
f 378/94/341 369/94/333 372/94/336
f 378/94/341 372/94/336 379/94/342
f 369/94/333 378/94/341 380/94/343
f 369/94/333 380/94/343 373/94/337
f 381/94/344 382/94/345 383/94/346
f 381/94/344 383/94/346 384/94/347
f 382/94/345 381/94/344 385/94/348
f 382/94/345 385/94/348 386/94/349
f 382/94/345 387/94/350 388/94/340
f 382/94/345 388/94/340 383/94/346
f 387/94/350 382/94/345 386/94/349
f 387/94/350 386/94/349 389/94/351
f 387/94/350 390/94/352 361/94/325
f 387/94/350 361/94/325 388/94/340
f 390/94/352 387/94/350 389/94/351
f 390/94/352 389/94/351 364/94/328
f 390/94/352 381/94/344 384/94/347
f 390/94/352 384/94/347 361/94/325
f 381/94/344 390/94/352 364/94/328
f 381/94/344 364/94/328 385/94/348
f 391/94/353 392/94/354 388/94/340
f 391/94/353 388/94/340 361/94/325
f 392/94/354 391/94/353 364/94/328
f 392/94/354 364/94/328 389/94/351
f 392/94/354 393/94/355 354/94/318
f 392/94/354 354/94/318 388/94/340
f 393/94/355 392/94/354 389/94/351
f 393/94/355 389/94/351 355/94/319
f 393/94/355 394/94/356 349/94/313
f 393/94/355 349/94/313 354/94/318
f 394/94/356 393/94/355 355/94/319
f 394/94/356 355/94/319 352/94/316
f 394/94/356 391/94/353 361/94/325
f 394/94/356 361/94/325 349/94/313
f 391/94/353 394/94/356 352/94/316
f 391/94/353 352/94/316 364/94/328
f 395/94/357 396/94/358 372/94/336
f 395/94/357 372/94/336 388/94/340
f 396/94/358 395/94/357 389/94/351
f 396/94/358 389/94/351 373/94/337
f 396/94/358 397/94/359 379/94/342
f 396/94/358 379/94/342 372/94/336
f 397/94/359 396/94/358 373/94/337
f 397/94/359 373/94/337 380/94/343
f 397/94/359 398/94/360 354/94/318
f 397/94/359 354/94/318 379/94/342
f 398/94/360 397/94/359 380/94/343
f 398/94/360 380/94/343 355/94/319
f 398/94/360 395/94/357 388/94/340
f 398/94/360 388/94/340 354/94/318
f 395/94/357 398/94/360 355/94/319
f 395/94/357 355/94/319 389/94/351
